<?xml version="1.0" standalone="no"?>
<!DOCTYPE svg PUBLIC "-//W3C//DTD SVG 20010904//EN"
 "http://www.w3.org/TR/2001/REC-SVG-20010904/DTD/svg10.dtd">
<svg version="1.0" xmlns="http://www.w3.org/2000/svg"
 width="700.000000pt" height="700.000000pt" viewBox="0 0 700.000000 700.000000"
 preserveAspectRatio="xMidYMid meet">
<metadata>
Created by potrace 1.11, written by Peter Selinger 2001-2013
</metadata>
<g transform="translate(0.000000,700.000000) scale(0.100000,-0.100000)"
fill="#000000" stroke="none">
<path d="M1667 5943 c-3 -5 -321 -555 -707 -1222 -592 -1023 -701 -1218 -694
-1237 5 -12 324 -567 709 -1233 l700 -1211 1830 0 1831 0 706 1230 707 1230
-707 1225 -707 1224 -1832 1 c-1007 0 -1834 -3 -1836 -7z m2641 -1195 l-3
-143 -537 -3 -538 -2 0 -385 0 -385 415 0 416 0 -3 -127 -3 -128 -412 -3 -413
-2 0 -710 0 -710 -180 0 -180 0 0 1370 0 1370 720 0 721 0 -3 -142z"/>
</g>
</svg>
