<?xml version="1.0" standalone="no"?>
<!DOCTYPE svg PUBLIC "-//W3C//DTD SVG 20010904//EN"
 "http://www.w3.org/TR/2001/REC-SVG-20010904/DTD/svg10.dtd">
<svg version="1.0" xmlns="http://www.w3.org/2000/svg"
 width="700.000000pt" height="700.000000pt" viewBox="0 0 700.000000 700.000000"
 preserveAspectRatio="xMidYMid meet">
<metadata>
Created by potrace 1.11, written by Peter Selinger 2001-2013
</metadata>
<g transform="translate(0.000000,700.000000) scale(0.100000,-0.100000)"
fill="#000000" stroke="none">
<path d="M1668 5943 c-8 -10 -331 -564 -716 -1230 l-701 -1213 711 -1230 710
-1230 1831 2 1832 3 707 1227 707 1228 -708 1227 -709 1228 -1824 3 c-1728 2
-1826 1 -1840 -15z m2632 -1193 l0 -140 -540 0 -540 0 0 -395 0 -395 415 0
415 0 0 -120 0 -120 -415 0 -415 0 0 -710 0 -710 -175 0 -175 0 0 1365 0 1365
715 0 715 0 0 -140z"/>
</g>
</svg>
