<svg xmlns="http://www.w3.org/2000/svg" viewBox="0 0 19.84 19.84">
	<style>
		.st0{fill:#2B2E38;} .st1{fill:#3EA468;} .st2{fill:#3C925D;} .st3{fill:#F6F6F6;}
	</style>
	<path class="st0" d="M4.74 16.88L.72 9.92l4.02-6.95h8.03l4 6.95-4 6.96z"/>
	<path class="st0" d="M7.08 16.88L3.06 9.92l4.02-6.95h8.03l4.02 6.95-4 6.96z"/>
	<path class="st1" d="M5.9 16.88l-4-6.96 4-6.95h8.04l4 6.95-4 6.96z"/>
	<path class="st1" d="M13.94 2.97L5.9 16.87h8.04l4-6.95z"/>
	<path class="st2" d="M12.2 6.77l-5.86 10.1H5.9l-2.03-3.52 4.27-7.37"/>
	<path class="st2" d="M11.5 9.7l-4.2 7.18H5.9l-.55-.96 3.6-6.57"/>
	<g>
		<path class="st3" d="M8.14 5.98h4.06v.8H8.14zM8.14 9h3.35v.7H8.13z"/>
		<path class="st3" d="M8.14 5.98h1v7.75h-1z"/>
	</g>
</svg>